<svg xmlns="http://www.w3.org/2000/svg" width="86" height="86" viewBox="0 0 86 86" fill="none">
  <path fill-rule="evenodd" clip-rule="evenodd" d="M47.6068 1.90824C50.1511 4.45257 50.1511 8.57773 47.6068 11.1221L15.7289 43L42.9999 70.271L63.7557 49.5151H42.9999C39.4017 49.5151 36.4848 46.5982 36.4848 43C36.4848 39.4018 39.4017 36.4848 42.9999 36.4848H79.4847C82.1198 36.4848 84.4955 38.0722 85.5039 40.5068C86.5123 42.9413 85.9549 45.7436 84.0916 47.6069L47.6068 84.0918C45.0625 86.6361 40.9373 86.6361 38.393 84.0918L1.90824 47.6069C-0.63608 45.0626 -0.63608 40.9374 1.90824 38.3931L38.393 1.90824C40.9373 -0.636081 45.0625 -0.636081 47.6068 1.90824Z" fill="white"/>
</svg>